# xmcd
#
# Track frame offsets:
#	150
#	27437
#	52795
#	76199
#	94034
#	130657
#	150080
#	166495
#
# Disc length: 2540 seconds
#
# Revision: 2
# Processed by: cddbd v1.5.2PL0 Copyright (c) Steve Scherf et al.
# Submitted via: AudioConverter v5.0 Copyright (c) Ultimate Shareware Ltd
#
DISCID=4b09ea08
DTITLE=H_lio Ser_dio Trio - Balacobaco in New York
DYEAR=2003
DGENRE=Jazz
TTITLE0=Balacobaco
TTITLE1=New York "U" don't like me but I love "U"
TTITLE2=Exu
TTITLE3=Mandioca
TTITLE4=Rio Capital
TTITLE5=Calango 2
TTITLE6=Arigato e a cacha_a
TTITLE7=Pescaria
EXTD=YEAR: 2003
EXTT0=
EXTT1=
EXTT2=
EXTT3=
EXTT4=
EXTT5=
EXTT6=
EXTT7=
PLAYORDER=
